<?xml version="1.0" encoding="iso-8859-1"?>
<!-- Generator: Adobe Illustrator 19.0.0, SVG Export Plug-In . SVG Version: 6.00 Build 0)  -->
<svg version="1.1" id="Layer_1" xmlns="http://www.w3.org/2000/svg" xmlns:xlink="http://www.w3.org/1999/xlink" x="0px" y="0px"
	 viewBox="0 0 509.287 509.287" style="enable-background:new 0 0 509.287 509.287;" xml:space="preserve">
<circle style="fill:#6EB1E1;" cx="254.644" cy="254.644" r="254.644"/>
<circle style="fill:#FCFCFD;" cx="254.644" cy="254.644" r="208.53"/>
<g>
	<path style="fill:#4F5565;" d="M254.644,272.954L254.644,272.954c-10.172,0-18.31-8.138-18.31-18.31v-139.02
		c0-10.172,8.138-18.31,18.31-18.31l0,0c10.172,0,18.31,8.138,18.31,18.31v139.02C272.954,264.816,264.816,272.954,254.644,272.954z
		"/>
	<path style="fill:#4F5565;" d="M272.954,253.287v3.052c0,9.494-7.46,16.954-16.954,16.954H140.715
		c-9.494,0-16.954-7.46-16.954-16.954v-3.052c0-9.494,7.46-16.954,16.954-16.954H256
		C265.494,236.334,272.954,243.793,272.954,253.287z"/>
</g>
<g>
	<rect x="246.506" y="56.625" style="fill:#646B79;" width="16.615" height="22.718"/>
	<rect x="246.506" y="429.944" style="fill:#646B79;" width="16.615" height="22.718"/>
	<rect x="429.944" y="246.506" style="fill:#646B79;" width="22.718" height="16.615"/>
	<rect x="56.625" y="246.506" style="fill:#646B79;" width="22.718" height="16.615"/>
	<circle style="fill:#646B79;" cx="254.644" cy="254.644" r="41.367"/>
</g>
<circle style="fill:#F0582F;" cx="254.644" cy="254.644" r="18.31"/>
<g>
</g>
<g>
</g>
<g>
</g>
<g>
</g>
<g>
</g>
<g>
</g>
<g>
</g>
<g>
</g>
<g>
</g>
<g>
</g>
<g>
</g>
<g>
</g>
<g>
</g>
<g>
</g>
<g>
</g>
</svg>
