<svg height="512pt" viewBox="0 0 512 512" width="512pt" xmlns="http://www.w3.org/2000/svg"><path d="m255.808594 511.996094c.066406 0 .128906.003906.191406.003906 141.386719 0 256-114.613281 256-256s-114.613281-256-256-256-256 114.613281-256 256c0 141.320312 114.511719 255.894531 255.808594 255.996094" fill="#2d5396"/><path d="m512 256c0-11.714844-.804688-23.238281-2.328125-34.535156l-124.574219-124.574219-258.195312 318.21875 94.5625 94.5625c11.234375 1.515625 22.695312 2.316406 34.34375 2.324219.0625 0 .128906.003906.191406.003906 141.386719 0 256-114.613281 256-256zm0 0" fill="#1b3b6b"/><path d="m199.167969 96.890625-72.265625 72.265625v245.953125h258.195312v-318.21875zm0 0" fill="#fff"/><path d="m255.714844 96.890625h129.382812v318.21875h-129.382812zm0 0" fill="#dbeeff"/><path d="m199.167969 169.15625v-72.265625l-72.265625 72.265625zm0 0" fill="#abddff"/><path d="m157.5 195h197v30h-197zm0 0" fill="#abddff"/><path d="m255.714844 195h98.785156v30h-98.785156zm0 0" fill="#78beff"/><path d="m157.5 262h197v30h-197zm0 0" fill="#abddff"/><path d="m255.714844 262h98.785156v30h-98.785156zm0 0" fill="#78beff"/><path d="m157.5 329h197v30h-197zm0 0" fill="#abddff"/><path d="m255.714844 329h98.785156v30h-98.785156zm0 0" fill="#78beff"/><path d="m444.324219 294.664062c0 46.757813-37.902344 84.660157-84.660157 84.660157-46.757812 0-84.664062-37.902344-84.664062-84.660157 0-46.757812 37.90625-84.664062 84.664062-84.664062 46.757813 0 84.660157 37.90625 84.660157 84.664062zm0 0" fill="#ffe000"/><path d="m359.664062 210c-.128906 0-.253906.007812-.378906.011719v169.304687c.125 0 .25.011719.378906.011719 46.757813 0 84.660157-37.90625 84.660157-84.664063 0-46.757812-37.902344-84.664062-84.660157-84.664062zm0 0" fill="#ffc200"/><path d="m347.789062 345.039062-44.367187-44.367187 24.75-24.75 19.617187 19.621094 45.921876-45.917969 24.746093 24.75zm0 0" fill="#65b1fc"/><path d="m393.710938 249.625-34.425782 34.421875v49.5l59.171875-59.171875zm0 0" fill="#4a98f7"/></svg>