<svg height="494pt" viewBox="-15 0 494 494.944" width="494pt" xmlns="http://www.w3.org/2000/svg"><path d="m448.472656 262.945312c0 119.101563-96.898437 216-216 216-119.105468 0-216-96.898437-216-216 0-119.105468 96.894532-216 216-216h8v-17.058593l49.574219 33.058593-49.574219 33.054688v-17.054688h-8c-101.464844 0-184 82.535157-184 184 0 101.460938 82.535156 184 184 184s184-82.539062 184-184h-16c0 92.628907-75.367187 168-168 168-92.632812 0-168-75.371093-168-168 0-89.953124 71.0625-163.625 160-167.816406v30.757813l94.421875-62.941407-94.421875-62.945312v31.078125c-124.234375 4.234375-224 106.617187-224 231.867187 0 127.917969 104.078125 232 232 232 127.917969 0 232-104.082031 232-232zm0 0"/><path d="m259.792969 267.152344c22.277343-10.535156 36.679687-33.25 36.679687-57.855469v-18.351563c8.824219 0 16-7.175781 16-16v-16c0-8.824218-7.175781-16-16-16h-128c-8.824218 0-16 7.175782-16 16v16c0 8.824219 7.175782 16 16 16v18.351563c0 24.605469 14.398438 47.320313 36.6875 57.855469 2.039063.96875 3.3125 2.871094 3.3125 4.960937 0 2.101563-1.273437 4-3.3125 4.964844-22.289062 10.539063-36.6875 33.25-36.6875 57.867187v16c-8.824218 0-16 7.175782-16 16v16c0 8.824219 7.175782 16 16 16h128c8.824219 0 16-7.175781 16-16v-16c0-8.824218-7.175781-16-16-16v-16c0-24.617187-14.402344-47.328124-36.6875-57.855468-2.042968-.976563-3.3125-2.875-3.3125-4.976563 0-2.089843 1.269532-3.992187 3.320313-4.960937zm-91.320313-108.207032h128l.015625 16h-128.015625zm128.015625 224h-128.015625v-16h128zm-43.527343-91.394531c16.703124 7.898438 27.511718 24.929688 27.511718 43.394531v16h-96v-16c0-18.464843 10.808594-35.496093 27.511719-43.394531 7.589844-3.574219 12.488281-11.207031 12.488281-19.4375 0-8.234375-4.898437-15.847656-12.480468-19.433593-16.71875-7.902344-27.519532-24.9375-27.519532-43.390626v-18.34375h96v18.351563c0 18.457031-10.808594 35.488281-27.511718 43.390625-7.59375 3.578125-12.488282 11.199219-12.488282 19.425781 0 8.222657 4.894532 15.863281 12.488282 19.4375zm0 0"/><path d="m392.660156 211.738281 15.453125-4.140625 4.140625 15.453125-15.453125 4.140625zm0 0"/><path d="m373.976562 172.027344 13.855469-8 8 13.859375-13.859375 7.996093zm0 0"/><path d="m345.609375 138.488281 11.3125-11.3125 11.3125 11.3125-11.3125 11.3125zm0 0"/><path d="m309.539062 113.4375 7.996094-13.855469 13.859375 7.996094-8 13.859375zm0 0"/><path d="m442.753906 212.953125 15.683594-3.117187 3.117188 15.683593-15.683594 3.117188zm0 0"/><path d="m428.957031 172.914062 14.789063-6.125 6.121094 14.78125-14.789063 6.125zm0 0"/><path d="m407.621094 136.308594 13.300781-8.890625 8.890625 13.292969-13.300781 8.894531zm0 0"/><path d="m379.546875 104.554688 11.3125-11.316407 11.3125 11.316407-11.3125 11.3125zm0 0"/><path d="m345.816406 78.898438 8.894532-13.300782 13.292968 8.890625-8.890625 13.300781zm0 0"/></svg>